<?xml version="1.0" encoding="UTF-8"?>
<svg id="Layer_2" data-name="Layer 2" xmlns="http://www.w3.org/2000/svg" viewBox="0 0 1012.55 454.71">
  <defs>
    <style>
      .cls-1, .cls-2 {
        fill: #c5b3e9;
      }

      .cls-2 {
        font-family: BFarnaz, 'B Farnaz';
        font-size: 48.84px;
      }
    </style>
  </defs>
  <g id="Layer_2_copy" data-name="Layer 2 copy">
    <g>
      <g>
        <rect class="cls-1" x="479.74" y="137.12" width="72.53" height="209.64" rx="16.09" ry="16.09"/>
        <rect class="cls-1" x="479.74" width="72.53" height="115.59" rx="16.09" ry="16.09"/>
        <path class="cls-1" d="M871.17,238.4c-14.81,22.25-37.02,38.47-62.8,44.54-7.26,1.71-12.46,8.07-12.46,15.53v29.65c0,10.16,9.29,17.75,19.26,15.79,49.51-9.72,91.14-43.53,113.92-89.64,5.25-10.64-2.63-23.08-14.5-23.08h-30.14c-5.37,0-10.31,2.76-13.29,7.22ZM625.93,173.38c0,81.12,52.07,149.24,122.41,168.16,10.27,2.76,20.37-4.89,20.37-15.52v-29.95c0-6.96-4.46-13.15-11.09-15.29-43.11-13.92-74.5-56.73-74.5-107.4s31.4-93.49,74.5-107.4c6.62-2.14,11.09-8.33,11.09-15.29v-29.95c0-10.63-10.11-18.28-20.37-15.52-70.34,18.92-122.41,87.04-122.41,168.16ZM795.91,18.65v29.65c0,7.46,5.2,13.82,12.46,15.53,25.78,6.07,47.98,22.29,62.8,44.54,2.97,4.47,7.92,7.22,13.29,7.22h30.14c11.86,0,19.75-12.45,14.5-23.08-22.78-46.12-64.41-79.92-113.92-89.64-9.97-1.96-19.26,5.63-19.26,15.79Z"/>
        <path class="cls-1" d="M266.11,1.13c7.89,0,15.03,4.65,18.22,11.87l57.87,130.92,79.68,180.24c4.7,10.64-3.09,22.6-14.72,22.6H97.92c-11.63,0-19.42-11.96-14.72-22.6l13.82-31.27c2.58-5.83,8.35-9.59,14.72-9.59l88.1-.27h124.84c4.4,0,7.34-4.52,5.56-8.54l-46.33-104.8-25.82-58.4c-2.14-4.83-8.99-4.83-11.13,0l-25.82,58.4-36.47,82.5c-2.58,5.83-8.35,9.59-14.72,9.59h-34.48c-11.63,0-19.42-11.96-14.72-22.6l42.1-95.25L220.75,13c3.19-7.21,10.33-11.87,18.22-11.87h27.14Z"/>
      </g>
      <text class="cls-2" transform="translate(0 430.81)"><tspan x="0" y="0">انجمن علمی هوش مصنوعی دانشگاه آزاد اسلامی واحد کرج</tspan></text>
    </g>
  </g>
</svg>